
<svg width="32" height="32" viewBox="0 0 32 32" fill="none" xmlns="http://www.w3.org/2000/svg">
<g clip-path="url(#clip0_101_15)">
<circle cx="16" cy="16" r="16" fill="#DEEAF6"/>
<path d="M12.7633 9.88346C13.741 9.27788 14.8674 8.95502 16.0175 8.95069L16.0225 8.95068C19.4856 8.9514 22.2928 11.759 22.2928 15.2223V20.5093C22.2928 21.0531 21.852 21.494 21.3082 21.494C20.7644 21.494 20.3236 21.0531 20.3236 20.5093V15.2223C20.3236 12.8468 18.3983 10.9209 16.023 10.9199C15.2374 10.9232 14.4681 11.1439 13.8002 11.5576C13.3379 11.8439 12.731 11.7013 12.4447 11.239C12.1583 10.7767 12.301 10.1698 12.7633 9.88346Z" fill="#202020"/>
<path d="M16.0211 14.0908C16.5649 14.0908 17.0058 14.5317 17.0058 15.0754V20.5093C17.0058 21.0531 16.5649 21.4939 16.0211 21.4939C15.4774 21.4939 15.0365 21.0531 15.0365 20.5093V15.0754C15.0365 14.5317 15.4774 14.0908 16.0211 14.0908Z" fill="#202020"/>
<path d="M10.7341 14.2377C11.2779 14.2377 11.7187 14.6785 11.7187 15.2223V20.5093C11.7187 21.0531 11.2779 21.494 10.7341 21.494C10.1903 21.494 9.74951 21.0531 9.74951 20.5093V15.2223C9.74951 14.6785 10.1903 14.2377 10.7341 14.2377Z" fill="#202020"/>
</g>
<defs>
<clipPath id="clip0_101_15">
<rect width="32" height="32" fill="white"/>
</clipPath>
</defs>
</svg>
